<?xml version="1.0" encoding="UTF-8"?> <svg xmlns="http://www.w3.org/2000/svg" width="102.772" height="33.886" viewBox="0 0 102.772 33.886"><g id="Group_5" data-name="Group 5" transform="translate(0.164 1.17)"><path id="Path_6" data-name="Path 6" d="M.3,9.6s22.246,13.369,79.358,4.278" transform="translate(0 0.577)" fill="none" stroke="#a3a3a3" stroke-miterlimit="10" stroke-width="1.8"></path><path id="Path_7" data-name="Path 7" d="M73.6,14s15.294,4.92,21.6-1.711a34.506,34.506,0,0,1-6.1,0C86.434,11.967,79.91,8.545,73.6,14Z" transform="translate(5.096 0.67)" fill="none" stroke="#a3a3a3" stroke-miterlimit="10" stroke-width="1.8"></path><path id="Path_8" data-name="Path 8" d="M63.1,15.845S77,8.573,78.18,1.3a19.279,19.279,0,0,1-4.92,3.1C70.159,5.792,63.849,5.578,63.1,15.845Z" transform="translate(4.366)" fill="none" stroke="#a3a3a3" stroke-miterlimit="10" stroke-width="1.8"></path><path id="Path_9" data-name="Path 9" d="M51.1,16.2s16.15-1.39,20.963,9.626a13.662,13.662,0,0,0-4.92-2.246C64.469,23.049,56.448,24.653,51.1,16.2Z" transform="translate(3.532 1.032)" fill="none" stroke="#a3a3a3" stroke-miterlimit="10" stroke-width="1.8"></path><path id="Path_10" data-name="Path 10" d="M38.6,17.3S61.06,15.479,59.883,3.5A10.9,10.9,0,0,1,55.5,6.281C52.825,7.136,43.734,6.6,38.6,17.3Z" transform="translate(2.663 0.153)" fill="none" stroke="#a3a3a3" stroke-miterlimit="10" stroke-width="1.8"></path><path id="Path_11" data-name="Path 11" d="M27,16.3s24.6,5.668,27.166,13.155c0,0-2.995-1.6-4.813-1.6S27.214,29.562,27,16.3Z" transform="translate(1.856 1.043)" fill="none" stroke="#a3a3a3" stroke-miterlimit="10" stroke-width="1.8"></path><path id="Path_12" data-name="Path 12" d="M24.1,16.034S40.678,8.975,41.854,3.2a15.183,15.183,0,0,1-3.636,1.711C35.758,5.767,29.02,3.628,24.1,16.034Z" transform="translate(1.655 0.132)" fill="none" stroke="#a3a3a3" stroke-miterlimit="10" stroke-width="1.8"></path><path id="Path_13" data-name="Path 13" d="M11.337,13.9s11.658,8.128,12.406,15.829a13.813,13.813,0,0,0-3.1-2.032C19.572,27.376,8.128,24.381,11.337,13.9Z" transform="translate(0.728 0.876)" fill="none" stroke="#a3a3a3" stroke-miterlimit="10" stroke-width="1.8"></path></g></svg> 