<?xml version="1.0" encoding="utf-8"?>
<!DOCTYPE svg PUBLIC "-//W3C//DTD SVG 1.1//EN" "http://www.w3.org/Graphics/SVG/1.1/DTD/svg11.dtd">
<svg version="1.1" id="Ebene_1" xmlns="http://www.w3.org/2000/svg" xmlns:xlink="http://www.w3.org/1999/xlink" x="0px" y="0px"
	 viewBox="120.2629 30.938 896.7742 728.0339" enable-background="new 120.2629 30.938 896.7742 728.0339" xml:space="preserve">
<g>
	
		<linearGradient id="SVGID_1_" gradientUnits="userSpaceOnUse" x1="-1080.8132" y1="8.0304" x2="-1080.8132" y2="776.3375" gradientTransform="matrix(-1 0 0 -1 -212.8987 792)">
		<stop  offset="0" style="stop-color:#6E3600"/>
		<stop  offset="0.0338" style="stop-color:#7A4005"/>
		<stop  offset="0.0952" style="stop-color:#9A5A11"/>
		<stop  offset="0.1765" style="stop-color:#CE8424"/>
		<stop  offset="0.2" style="stop-color:#DE912A"/>
		<stop  offset="0.4299" style="stop-color:#834B00"/>
		<stop  offset="0.4638" style="stop-color:#915A0D"/>
		<stop  offset="0.5293" style="stop-color:#B78230"/>
		<stop  offset="0.6175" style="stop-color:#F2C167"/>
		<stop  offset="0.7387" style="stop-color:#D48C2E"/>
		<stop  offset="0.9045" style="stop-color:#825121"/>
	</linearGradient>
	<path fill="url(#SVGID_1_)" d="M887.6567,523.3495c-16.137-11.164-32.957-20.432-47.223-26.9
		c-7.1289-15.531-16.168-41.627-11.465-72.766c6.3125-41.775,24.479-67.732,57.168-81.688
		c24.383-10.408,52.9821-8.3306,78.465,5.7022c10.8361,5.9668,19.912,14.484,26.936,24.746
		c-4.6406,5.5117-10.207,10.029-16.2791,13.287c-17.0291,9.1406-46.418,8.1289-57.965,6.6602
		c-0.2773-0.043-1.3047-0.2051-2.8066-0.4258c-0.2695-0.0508-0.5176-0.0996-0.7344-0.1484l-0.0098,0.041
		c-3.7168-0.5332-9.623-1.3164-14.525-1.6465c-1.0234-0.0703-2.0586-0.123-3.0762-0.1621
		c-10.799-0.3965-18.965,1.0449-23.828,2.2871c5.1758-3.1816,15.377-7.5859,31.406-6.7969c8.4746,0.4141,17.084,2.7754,17.17,2.7988
		l0.7441,0.207l0.3184-0.707c0.1758-0.3848,4.2246-9.5527-1.7324-15.789c-3.1777-3.3247-8.127-5.2017-14.312-5.4292
		c-12.57-0.4639-27.473,5.9546-37.082,15.972c-7.873,8.207-18.135,22.557-18.236,22.701l-1.5586,2.1836l2.5586-0.791
		c0.1387-0.043,14.328-4.3965,22.896-3.791c9.7988,0.6973,17.693,4.4238,23.457,7.1465c2.9004,1.3691,5.1914,2.4512,6.9023,2.7305
		c1.248,0.2031,2.4668,0.3281,3.6191,0.3691c4.8418,0.1797,8.7012-1.0391,11.158-3.5254c1.8262-1.8496,2.7246-4.2695,2.6035-7
		c-0.1738-3.8262-1.5469-6.5098-2.7227-8.1348c2.582,0.2695,5.6953,0.498,9.1641,0.625c14.15,0.5215,34.152-0.6426,47.4431-7.7773
		c6.3184-3.3906,11.8979-7.8945,16.52-13.246c14.283,21.924,19.432,51.359,12.631,80.906
		c-8.6328,37.512-44.062,64.533-84.244,64.252c-36.223-0.2656-67.562-16.895-72.91-38.713
		c-3.7637-15.354,2.3691-24.92,7.5488-29.959l0.0254,0.0117l0.0645-0.1035c0.5957-0.5742,1.1777-1.0859,1.7285-1.5449
		c2.8086-1.8633,9.2441-5.5059,15.807-6.8203c3.9023-0.7813,7.0644-1.2832,10.41-1.8144c4.3496-0.6895,8.8496-1.4004,15.631-2.8164
		c5.6602-1.1836,10.158-2.918,13.488-4.5469c-3.1035,2.7109-6.9863,5.5938-10.473,6.6992l-1.6777,0.5352
		c-5.2676,1.6836-8.748,2.7949-17.201,4.209c-11.451,1.9121-19.67,6.2305-22.549,11.844c-1.2578,2.4551-1.3672,5.0059-0.3047,7.1816
		c2.043,4.1836,7.7832,8.8184,15.555,9.1035c4.0254,0.1484,8.0352-0.8809,11.92-3.0625c36.307-20.379,43.799-52.762,43.869-53.086
		l0.8613-3.9121l-2.4551,3.1602c-0.0508,0.0664-5.2461,6.6504-13.275,7.8477c-2.4941,0.3711-5.7891,0.4746-10.076,0.3164
		c-5.9394-0.2168-12.641-0.9023-18.551-1.5059c-2.0371-0.209-3.9707-0.4063-5.7344-0.5703
		c-13.723-1.2734-23.355,1.1894-28.506,7.2832c-3.9004,4.6172-4.4121,10.596-3.5879,14.652c0.6895,3.3887,2.4492,5.2168,3.502,6.041
		c-5.4219,5.5-11.617,15.609-7.7734,31.289c5.3574,21.865,35.566,38.709,71.049,40.016c1.1953,0.0449,2.3984,0.0703,3.6035,0.0781
		c41.0179,0.2871,77.191-27.328,86.016-65.658c5.2832-22.953,3.7148-45.812-4.5371-66.105
		c-2.4004-5.9062-5.332-11.459-8.7188-16.578c4.0332-4.9663,7.2734-10.602,9.5352-16.73c5.5-14.891,4.834-31.301-1.9297-47.455
		c-7.7324-18.471-23.158-27.004-34.736-30.91c-13.209-4.456-28.936-5.2168-41.045-1.9829
		c-13.154,3.5132-26.213,11.133-35.379,17.344c8.5-7.2988,16.848-13.414,24.262-18.844c0.5332-0.3906,1.0606-0.7759,1.5879-1.1626
		c6.459-4.0015,27.248-16.797,42.1541-25.012c11.25-6.2007,25.412-16.56,29-30.694c0.8828-3.4795,3.2715-15.614-3.0625-25.656
		c-2.6211-4.1582-6.3281-7.2202-11.051-9.1616c1.957-2.3613,3.8008-4.686,5.5293-6.9717c14.191-18.764,18.873-37.575,20.082-51.382
		c1.2148,0.7315,3.1914,1.6401,5.6563,1.7305c2.8086,0.104,5.5313-0.876,8.0898-2.9106c4.8496-3.8599,6.0352-12.814,2.6445-19.961
		c-5.9023-12.432-15.283-21.835-22.137-28.7c-2.1426-2.1484-3.9922-4.0029-5.4609-5.6636l-3.0273-3.4228l1.498,4.3223
		c0.0352,0.1016,3.4941,10.234,1.5137,17.759c-1.5293,5.8066-2.584,7.8555-4.502,11.574c-0.7031,1.3599-1.498,2.9014-2.4766,4.9248
		c-2.8906,5.977-3.5,11.614-1.6699,15.467c1.2168,2.5644,3.4746,4.2998,6.5254,5.0176c0.5664,0.1333,1.1973,0.2129,1.875,0.2383
		c2.9551,0.1089,5.9922-0.8457,6.1211-0.8862l0.4746-0.1509l0.125-0.4824c0.5234-2.0376,1.2617-6.0317,1.2168-14.041
		c-0.0098-1.9228,0.3887-14.694-2.5098-27.918c4.6328,10.495,4.375,43.917,4.457,39.991c-0.7637,13.745-4.9551,33.593-19.934,53.4
		c-1.832,2.4209-3.7949,4.8862-5.8848,7.394c-1.2734-0.4258-2.6133-0.7773-4.0176-1.0537c-0.3613-0.0708-0.7285-0.1299-1.0977-0.186
		c0.0215-4.8535,0.0039-10.68-0.0156-17.41c-0.0176-6.0903-0.0371-12.909-0.0313-20.393c0.0098-16.619,0.4004-29.825,2.5117-55.891
		c2.373-29.333,11.838-51.479,11.934-51.699l1.8203-4.2051l-3.2793,3.1948c-0.9746,0.9526-23.986,23.555-30.176,44.466
		c-5.4961,18.577-3.8594,39.297-3.4141,43.785c-2.6699,0.4761-10.564,2.5776-16.4301,11.286
		c-6.0606,8.999-1.293,23.991-1.0898,24.625l0.9765,2.9976l0.7598-3.0586c0.0215-0.0791,2.0391-7.9541,7.8887-11.056
		c3.0078-1.5952,6.5527-1.6572,10.537-0.1812c3.5098,1.2988,13.688,7.3154,15.561,33.27c-13.799-0.9946-46.008,6.3477-70.326,36.879
		c3.9102-4.9927,7.3789-14.938,27.74-30.707c8.4316-6.5317,18.264-7.8892,18.264-7.8892c1.1367-3.2876-6.3691-17.875-21.438-12.273
		c-12.324,4.582-16.855,12.851-21.545,24.757c-3.2168,8.1719-5.4668,15.952-9.1914,28.84c-1.3516,4.6768-2.8828,9.978-4.7441,16.287
		l-1.4258,4.8286l3.0137-4.0273c0.1133-0.1514,5.252-7.3745,19.725-15.907c4.1856-2.4683,17.297-8.1352,22.029-9.2612
		c9.1719-2.1831,16.174-2.5225,19.846-5.5674c2.8105-2.3306,4.4844-5.5024,4.709-8.9316c0.2031-3.1079-0.7891-6.0884-2.7227-8.1782
		c-2.082-2.2471-4.293-3.3369-7.1113-3.5244c6.4824-1.9678,15.619-4.1001,23.295-3.4971c0.1387,2.4917,0.2012,5.1562,0.1777,8.0083
		c-13.08,14.355-30.537,30.826-50.672,48.077c-12.467,10.68-48.738,44.198-72.203,96.934
		c-11.709,26.317-15.332,39.254-19.951,57.201c-1.459,5.6641-2.8398,13.082-3.4727,20.01c-0.207,2.2832-1.8496,16.404-0.002,34.145
		c1.8652,17.945,6.5996,31.643,14.631,46.486c-21.939-9.2871-36.643-9.3301-48.248-10.055
		c-32.658-2.0391-52.726,8.5039-61.72,29.123c-5.4033,12.389-4.5,24.01,1.0869,35.9c3.3643,7.1602,10.064,11.18,17.334,13.498
		c8.7446,2.793,16.02-0.4844,19.534-2.6445c0.8672,3.2246,3.9492,10.986,13.627,11.344c0.3984,0.0156,0.8105,0.0156,1.2324,0.0059
		c13.764-0.377,17.842-10.854,21.119-19.273c0.8262-2.1211,1.6055-4.127,2.4824-5.8398l0.1152-0.2285
		c6.7012-13.107,9.7598-19.092,21.262-22.375c6.0449-1.7285,13.666-2.1699,13.74-2.1758l3.4609-0.1914l-3.1133-1.5273
		c-0.5137-0.25-12.666-6.1719-21.795-7.7891c-6.4883-1.1504-12.277-1.8066-17.695-2.0059
		c-5.0879-0.1895-9.9414,0.0371-14.836,0.6855c-15.584,2.0664-23.102,7.7285-28.398,12.994
		c-4.875,4.8457-8.6128,13.119-4.4844,21.801c2.4648,5.1856,9.5,9.4707,9.7988,9.6504l0.3145,0.1895l0.3594-0.084
		c0.3828-0.0918,3.916-1.1582,9.8047-10.352c2.416-3.7754,8.3125-10.816,13.096-14.217c4.8555-3.4512,10.521-5.4082,15.316-6.5215
		c-0.3496,0.1523-0.7051,0.3125-1.0664,0.4805c-0.4297,0.2012-0.8535,0.3926-1.2793,0.582
		c-5.1328,2.2988-10.441,4.6777-23.02,22.174c-4.4883,6.2402-9.9375,10.402-9.9922,10.443l-0.2754,0.2051
		c-2.8672,1.8887-10.127,5.6992-18.759,2.9453c-6.7812-2.166-12.225-7.0547-15.327-13.771
		c-4.1641-9.0117-5.8398-22.045-0.2314-33.775c8.2344-17.229,23.646-26.377,56.033-26.543
		c10.865-0.0547,30.229,1.8496,52.756,11.723c1.3711,2.3906,3.7227,6.9023,5.2539,9.2012c1.0742,1.6152,69.076,108.13,82.693,148.95
		c16.91,50.688,24.33,92.812,5.0742,103.44l1.8145-0.123c21.67-4.6777,19.443-52.178,1.2344-103.01
		c-24.691-68.932-68.994-120.9-83.703-146.78c-1.8887-2.9297-2.3828-3.9492-4.377-7.7285c13.576,6.3418,29.008,13.719,43.758,24.844
		c32.684,24.654,46.0861,42.58,59.084,75.105c13.699,34.275,14.963,51.723,14.066,86.943
		c-0.6035,23.672-11.3199,69.805-28.109,70.697l2.7832,0.1016c20.881-4.6816,32.105-39.494,33.541-70.293
		c1.4961-32.117-4.2012-64.631-18.553-95.975c-14.8-32.2-31.7-48.67-61.61-69.39L887.6567,523.3495z M982.6667,192.5796
		c4.7246,7.4936,4.5625,17.436,2.8359,24.241c-3.4258,13.504-17.182,23.524-28.1169,29.553
		c-8.4844,4.6753-18.865,10.828-27.438,16.007c1.1211-0.9297,2.2109-1.855,3.2383-2.7759c13.639-12.22,28.078-28.297,31.746-54.893
		c0.4004-2.9141,0.6738-5.9526,0.8086-9.0322c0.1523-1.1787,0.2617-2.8867,0.3379-5.0913c2.043-2.2583,3.9902-4.4854,5.8418-6.6807
		c4.7,1.79,8.4,4.69,10.9,8.67L982.6667,192.5796z M966.1667,182.3696c0.2539,0.042,0.5098,0.0786,0.7598,0.1279
		c1.0762,0.2119,2.1094,0.4761,3.1016,0.7803c-1.2637,1.4912-2.5762,2.998-3.9297,4.5176v-5.43L966.1667,182.3696z
		 M847.6767,331.0195c25.152-51.59,53.029-77.839,65.832-89.074c19.3051-16.936,37.5291-35.109,50.479-49.119
		c-0.0215,0.895-0.0527,1.8018-0.0918,2.7319c-0.1328,3.0371-0.4004,6.0322-0.7949,8.9033c-3.5879,26.014-17.766,41.789-31.16,53.79
		c-4.7578,4.2617-10.631,8.626-16.889,13.212c-1.207,0.7476-1.9004,1.1807-1.9434,1.2065l0.0938,0.1494
		c-14.523,10.634-32.506,22.65-48.373,42.287c-12.816,15.861-21.521,26.165-33.588,57.312c6.1-19.26,8.76-25.57,16.47-41.4
		L847.6767,331.0195z M822.6867,412.3695c0.8906-5.25,1.6719-10.775,3.209-16.295l0.0078,0.002
		c0.0039-0.0137,0.0234-0.0938,0.0547-0.2207c7.5781-27.081,22.033-56.765,40.232-78.393c14.195-16.869,36.232-33.77,59.859-40.081
		c21.879-5.8442,60.418,0.2354,73.652,31.843c10.146,24.24,5.0332,46.57-7.0508,61.845c-7.3145-10.55-16.6021-19.137-27.184-24.963
		c-25.973-14.302-55.145-16.409-80.039-5.7812c-16.062,6.8564-28.406,16.28-37.74,28.811
		c-10.389,13.943-18.254,30.246-21.666,52.822c-4.1445,27.439-0.875,41.41,4.1465,57.277
		c-5.5644-16.051-6.6074-20.389-7.7832-34.848c-1.49-18.4,0.06-30.6,0.3-32.03L822.6867,412.3695z"/>
	
		<linearGradient id="SVGID_2_" gradientUnits="userSpaceOnUse" x1="-1083.3602" y1="8.0304" x2="-1083.3602" y2="776.3354" gradientTransform="matrix(-1 0 0 -1 -212.8987 792)">
		<stop  offset="0" style="stop-color:#6E3600"/>
		<stop  offset="0.0338" style="stop-color:#7A4005"/>
		<stop  offset="0.0952" style="stop-color:#9A5A11"/>
		<stop  offset="0.1765" style="stop-color:#CE8424"/>
		<stop  offset="0.2" style="stop-color:#DE912A"/>
		<stop  offset="0.4299" style="stop-color:#834B00"/>
		<stop  offset="0.4638" style="stop-color:#915A0D"/>
		<stop  offset="0.5293" style="stop-color:#B78230"/>
		<stop  offset="0.6175" style="stop-color:#F2C167"/>
		<stop  offset="0.7387" style="stop-color:#D48C2E"/>
		<stop  offset="0.9045" style="stop-color:#825121"/>
	</linearGradient>
	<path fill="url(#SVGID_2_)" d="M895.0468,653.3495c-7.2559-5.9922-17.59-13.248-27.584-20.268
		c-10.689-7.5078-20.867-14.656-26.676-19.793c-2.6934-3.1387-5.6543-7.3594-8.4727-12.965
		c-2.0606-5.1543-3.8691-11.217-5.3359-16.834c3.8242,9.2109,9.1211,19.686,15.174,25.275
		c3.5508,3.2754,7.8555,5.0977,12.451,5.2695c7.8945,0.291,15.178-4.4805,16.945-11.096c2.7969-10.477-2.2344-18.893-16.312-27.285
		c-1.1523-0.6855-2.2676-1.3457-3.3477-1.9863c-10.969-6.4883-18.215-10.777-23.34-19.176
		c-4.2168-6.9102-7.0391-23.127-7.0684-23.291l-0.5938-3.4492l-1.1484,3.3066c-0.0723,0.2051-7.1348,20.604-10.883,37.168
		c-1.2383,5.4707-3.373,18.004-3.5293,30.279c-0.1523,11.867,2.2109,22.33,6.4844,28.703c1.5644,2.3359,7.4453,9.9844,17.381,10.35
		c2.1348,0.0801,4.3125-0.2012,6.4785-0.834c11.539-3.3691,14.426-10.637,15.109-13.295c4.7344,3.4727,10.123,7.2578,15.646,11.137
		c9.9668,7,20.271,14.236,27.473,20.182c17.137,14.145,26.83,28.451,34.516,57.582c11.121,42.156-2.5918,46.002-2.5859,46.26
		l1.0137,0.1133c11.9771-7.2266,9.6074-25.158,5.0254-46.818c-6.2-29.98-19.3-44.12-36.72-58.52L895.0468,653.3495z"/>
	
		<linearGradient id="SVGID_3_" gradientUnits="userSpaceOnUse" x1="-1128.5793" y1="8.0304" x2="-1128.5793" y2="776.3384" gradientTransform="matrix(-1 0 0 -1 -212.8987 792)">
		<stop  offset="0" style="stop-color:#6E3600"/>
		<stop  offset="0.0338" style="stop-color:#7A4005"/>
		<stop  offset="0.0952" style="stop-color:#9A5A11"/>
		<stop  offset="0.1765" style="stop-color:#CE8424"/>
		<stop  offset="0.2" style="stop-color:#DE912A"/>
		<stop  offset="0.4299" style="stop-color:#834B00"/>
		<stop  offset="0.4638" style="stop-color:#915A0D"/>
		<stop  offset="0.5293" style="stop-color:#B78230"/>
		<stop  offset="0.6175" style="stop-color:#F2C167"/>
		<stop  offset="0.7387" style="stop-color:#D48C2E"/>
		<stop  offset="0.9045" style="stop-color:#825121"/>
	</linearGradient>
	<path fill="url(#SVGID_3_)" d="M948.0667,731.4296c0.0313-0.1367,2.7715-4.4941,5.7246-24.129
		c1.2852-8.5527,2.0664-20.654,1.9512-25.713c-0.6738-29.553-3.9863-45.898-18.449-77.033
		c-22.656-48.785-61.686-68.453-61.686-68.453s22.504,14.578,33.693,37.957c4.4102,9.2207,7.2617,21.076,8.7988,29.814
		c0.7578,4.2969,0.8125,9.9219,3.377,16.66c4.7031,12.359,16.303,32.861,20.084,48.09c7.1,29.08,6.4,62.8,6.4,62.8
		L948.0667,731.4296z"/>
	
		<linearGradient id="SVGID_4_" gradientUnits="userSpaceOnUse" x1="-1200.0969" y1="-67.3895" x2="-1200.0969" y2="907.8705" gradientTransform="matrix(-1 0 0 -1 -212.8987 792)">
		<stop  offset="0" style="stop-color:#6E3600"/>
		<stop  offset="0.0338" style="stop-color:#7A4005"/>
		<stop  offset="0.0952" style="stop-color:#9A5A11"/>
		<stop  offset="0.1765" style="stop-color:#CE8424"/>
		<stop  offset="0.2" style="stop-color:#DE912A"/>
		<stop  offset="0.4299" style="stop-color:#834B00"/>
		<stop  offset="0.4638" style="stop-color:#915A0D"/>
		<stop  offset="0.5293" style="stop-color:#B78230"/>
		<stop  offset="0.6175" style="stop-color:#F2C167"/>
		<stop  offset="0.7387" style="stop-color:#D48C2E"/>
		<stop  offset="0.9045" style="stop-color:#825121"/>
	</linearGradient>
	<path fill="url(#SVGID_4_)" d="M1008.8668,508.6495l3.0723-4.6523l-4.3809,3.4375c-0.1953,0.1523-19.572,15.455-32.545,34.041
		c-6.9043,9.8926-15.6071,26.627-11.496,57.619c1.1426,8.6191,2.2285,14.58,3.5156,19.766
		c12.426,50.041,6.4258,70.041,6.4258,70.041s7.1123-38.802,6.666-58.995c-0.2539-11.492-1.6992-19.513-1.7891-29.157
		c-0.0605-6.627-0.125-13.482,0.6934-20.758c1.6602-14.709,5.1738-26.893,7.9473-34.775c-1.8203,9.0527-4.1602,22.227-4.584,31.951
		c-0.3496,8.0215,0.0898,14.385,0.5117,20.537c0.5547,8.0938,2.1602,19.493,2.0547,30.369
		c-0.334,34.495-10.667,70.333-10.667,70.333s15.152-24.767,22.5-49.5c4.5674-15.373,7.2471-38.265,3.8057-58.909
		c-2.7578-16.529-4.9355-36.346-0.1895-57.979c3.4-15.63,8.4-23.3,8.5-23.37L1008.8668,508.6495z"/>
	
		<linearGradient id="SVGID_5_" gradientUnits="userSpaceOnUse" x1="-998.1218" y1="8.0204" x2="-998.1218" y2="776.3414" gradientTransform="matrix(-1 0 0 -1 -212.8987 792)">
		<stop  offset="0" style="stop-color:#6E3600"/>
		<stop  offset="0.0338" style="stop-color:#7A4005"/>
		<stop  offset="0.0952" style="stop-color:#9A5A11"/>
		<stop  offset="0.1765" style="stop-color:#CE8424"/>
		<stop  offset="0.2" style="stop-color:#DE912A"/>
		<stop  offset="0.4299" style="stop-color:#834B00"/>
		<stop  offset="0.4638" style="stop-color:#915A0D"/>
		<stop  offset="0.5293" style="stop-color:#B78230"/>
		<stop  offset="0.6175" style="stop-color:#F2C167"/>
		<stop  offset="0.7387" style="stop-color:#D48C2E"/>
		<stop  offset="0.9045" style="stop-color:#825121"/>
	</linearGradient>
	<path fill="url(#SVGID_5_)" d="M751.7667,448.5796c3.0098-1.9727,7.8574-3.0352,12.969-2.8477
		c4.377,0.1602,8.5898,1.207,12.182,3.0254c6.3438,3.209,11.037,8.002,16.006,13.076c2.457,2.5078,4.9961,5.1016,7.793,7.5449
		c10.066,8.7949,18.037,13.512,18.117,13.561l2.2598,1.3281l-0.9648-2.4453c-0.0371-0.0957-3.8144-9.7441-6.0547-22.213
		c-5.0664-28.221-4.6875-40.334-1.0781-60.305c1.6309-9.0254,5.6289-20.043,9.8633-31.709
		c3.9707-10.948,8.0781-22.269,10.584-32.915c6.7949-28.878-9.3496-54.282-9.5117-54.534l-2.3535-3.6377l0.7031,4.2788
		c0.0254,0.1479,2.4199,14.868,1.2109,24.768c-1.6758,13.729-3.0859,19.245-8.8672,34.718
		c-1.7871,4.7832-4.2383,9.2188-6.8301,13.915c-5.6894,10.301-12.137,21.978-14.945,42.494
		c-2.6504,19.359,1.4922,35.984,4.541,44.898c-4.8652-6.2344-13.207-15.242-21.916-17.031
		c-2.2695-0.4648-4.4844-0.7422-6.582-0.8203c-10.648-0.3906-19.08,4.2168-25.772,14.09c-6.0478,8.9238-7.3975,24.15-7.4512,24.795
		l-0.335,3.9629l2.0117-3.4277c0.05-0.09,5.01-8.41,14.42-14.57L751.7667,448.5796z"/>
	
		<linearGradient id="SVGID_6_" gradientUnits="userSpaceOnUse" x1="-1059.9657" y1="8.0304" x2="-1059.9657" y2="776.3395" gradientTransform="matrix(-1 0 0 -1 -212.8987 792)">
		<stop  offset="0" style="stop-color:#6E3600"/>
		<stop  offset="0.0338" style="stop-color:#7A4005"/>
		<stop  offset="0.0952" style="stop-color:#9A5A11"/>
		<stop  offset="0.1765" style="stop-color:#CE8424"/>
		<stop  offset="0.2" style="stop-color:#DE912A"/>
		<stop  offset="0.4299" style="stop-color:#834B00"/>
		<stop  offset="0.4638" style="stop-color:#915A0D"/>
		<stop  offset="0.5293" style="stop-color:#B78230"/>
		<stop  offset="0.6175" style="stop-color:#F2C167"/>
		<stop  offset="0.7387" style="stop-color:#D48C2E"/>
		<stop  offset="0.9045" style="stop-color:#825121"/>
	</linearGradient>
	<path fill="url(#SVGID_6_)" d="M856.2968,289.8695c8.7832-21.179,10.922-45.943,12.801-76.116
		c2.041-32.708,21.543-49.919,21.74-50.089l3.7051-3.2017l-4.6016,1.6626c-0.2988,0.1084-30.117,11.15-40.463,37.731
		c-2.9648,7.6221-2.0273,18.878-1.5039,23.263c-2.916-1.5288-9.4668-4.4551-17.334-4.7451
		c-1.4824-0.0547-2.9609-0.0107-4.3906,0.1309c-20.393,2.0176-26.082,20.516-26.137,20.703l-0.5215,1.7671l1.7129-0.6655
		c0.0684-0.0259,6.7637-2.585,14.959-2.2827c8.4883,0.3125,19.975,3.8267,26.486,18.792"/>
	
		<linearGradient id="SVGID_7_" gradientUnits="userSpaceOnUse" x1="-1181.3455" y1="8.0304" x2="-1181.3455" y2="776.3375" gradientTransform="matrix(-1 0 0 -1 -212.8987 792)">
		<stop  offset="0" style="stop-color:#6E3600"/>
		<stop  offset="0.0338" style="stop-color:#7A4005"/>
		<stop  offset="0.0952" style="stop-color:#9A5A11"/>
		<stop  offset="0.1765" style="stop-color:#CE8424"/>
		<stop  offset="0.2" style="stop-color:#DE912A"/>
		<stop  offset="0.4299" style="stop-color:#834B00"/>
		<stop  offset="0.4638" style="stop-color:#915A0D"/>
		<stop  offset="0.5293" style="stop-color:#B78230"/>
		<stop  offset="0.6175" style="stop-color:#F2C167"/>
		<stop  offset="0.7387" style="stop-color:#D48C2E"/>
		<stop  offset="0.9045" style="stop-color:#825121"/>
	</linearGradient>
	<path fill="url(#SVGID_7_)" d="M996.2668,217.6096c0,0,1.1719,19.598-12.859,32.867c-9.6035,9.0815-53.432,19.486-53.432,19.486
		s18.441-2.8774,30.1331-3.0195c12.355-0.1484,28.031,2.2422,39.104,15.141c4.8594,5.6631,7.6641,9.9522,7.6641,9.9522
		s0.5781-9.5391-2.6113-16.313c-5.3086-11.276-14.7321-14.344-14.7321-14.344s3.6563-1.1738,8.2012-10.072
		c6.1-12.12-1.5-33.71-1.5-33.71L996.2668,217.6096z"/>
	
		<linearGradient id="SVGID_8_" gradientUnits="userSpaceOnUse" x1="-1130.5813" y1="8.0304" x2="-1130.5813" y2="776.3375" gradientTransform="matrix(-1 0 0 -1 -212.8987 792)">
		<stop  offset="0" style="stop-color:#6E3600"/>
		<stop  offset="0.0338" style="stop-color:#7A4005"/>
		<stop  offset="0.0952" style="stop-color:#9A5A11"/>
		<stop  offset="0.1765" style="stop-color:#CE8424"/>
		<stop  offset="0.2" style="stop-color:#DE912A"/>
		<stop  offset="0.4299" style="stop-color:#834B00"/>
		<stop  offset="0.4638" style="stop-color:#915A0D"/>
		<stop  offset="0.5293" style="stop-color:#B78230"/>
		<stop  offset="0.6175" style="stop-color:#F2C167"/>
		<stop  offset="0.7387" style="stop-color:#D48C2E"/>
		<stop  offset="0.9045" style="stop-color:#825121"/>
	</linearGradient>
	<path fill="url(#SVGID_8_)" d="M856.1967,355.4395c0,0,22.207-22.299,51.486-23.94c22.107-1.2383,32.951,0.9126,46.9059,6.4131
		c8.5195,3.3589,10.699,4.9731,10.699,4.9731s8.2129-3.4805,11.359-10.959c7.7578-18.45-4.8594-31.607-4.8594-31.607
		s-9.998,19.097-30.4919,18.216c-24.66-1.0596-33.445,1.1504-44.785,5.4507c-22.13,8.4-40.29,31.46-40.29,31.46L856.1967,355.4395z"
		/>
	
		<linearGradient id="SVGID_9_" gradientUnits="userSpaceOnUse" x1="-1174.0514" y1="8.0304" x2="-1174.0514" y2="776.3375" gradientTransform="matrix(-1 0 0 -1 -212.8987 792)">
		<stop  offset="0" style="stop-color:#6E3600"/>
		<stop  offset="0.0338" style="stop-color:#7A4005"/>
		<stop  offset="0.0952" style="stop-color:#9A5A11"/>
		<stop  offset="0.1765" style="stop-color:#CE8424"/>
		<stop  offset="0.2" style="stop-color:#DE912A"/>
		<stop  offset="0.4299" style="stop-color:#834B00"/>
		<stop  offset="0.4638" style="stop-color:#915A0D"/>
		<stop  offset="0.5293" style="stop-color:#B78230"/>
		<stop  offset="0.6175" style="stop-color:#F2C167"/>
		<stop  offset="0.7387" style="stop-color:#D48C2E"/>
		<stop  offset="0.9045" style="stop-color:#825121"/>
	</linearGradient>
	<path fill="url(#SVGID_9_)" d="M1004.6667,420.8896c0,0,6.4766,32.723-16.9139,62.533c-18.324,23.355-38.486,29.982-49.66,31.562
		c-6.3594,0.8984-8.0059,0.6113-8.0059,0.6113c-2.9863-1.6172-7.2305-4.0449-11.564-13.117
		c-4.4219-9.2559,1.1445-21.414,1.1445-21.414s14.932,10.25,29.324,7.9102c14.395-2.3418,28.068-5.2812,39.965-21.826
		c13.4-18.53,15.8-46.25,15.8-46.25L1004.6667,420.8896z"/>
	<path fill="#1B2851" d="M766.9367,413.7395c0,0-0.3809,0.3477-0.9785,0.9746c0.0449-0.043,0.0977-0.0918,0.1406-0.1328
		c0.36-0.34,0.76-0.73,0.84-0.84L766.9367,413.7395z"/>
	<path fill="#1B2851" d="M766.0167,426.3695c0,0-0.3809,0.3477-0.9785,0.9746c0.0449-0.043,0.0977-0.0918,0.1387-0.1328
		c0.35-0.34,0.76-0.72,0.84-0.84L766.0167,426.3695z"/>
	
		<linearGradient id="SVGID_10_" gradientUnits="userSpaceOnUse" x1="-876.9413" y1="1101.4695" x2="-876.9413" y2="1869.7794" gradientTransform="matrix(0.022 -0.9998 0.9998 0.022 -985.1675 -309.9955)">
		<stop  offset="0" style="stop-color:#6E3600"/>
		<stop  offset="0.0338" style="stop-color:#7A4005"/>
		<stop  offset="0.0952" style="stop-color:#9A5A11"/>
		<stop  offset="0.1765" style="stop-color:#CE8424"/>
		<stop  offset="0.2" style="stop-color:#DE912A"/>
		<stop  offset="0.4299" style="stop-color:#834B00"/>
		<stop  offset="0.4638" style="stop-color:#915A0D"/>
		<stop  offset="0.5293" style="stop-color:#B78230"/>
		<stop  offset="0.6175" style="stop-color:#F2C167"/>
		<stop  offset="0.7387" style="stop-color:#D48C2E"/>
		<stop  offset="0.9045" style="stop-color:#825121"/>
	</linearGradient>
	<path fill="url(#SVGID_10_)" d="M356.8567,616.4695c11.516-15.887,21.152-32.499,27.933-46.619
		c15.685-6.7852,41.974-15.247,73.001-9.8594c41.626,7.2305,67.177,25.963,80.409,58.953c9.8691,24.605,7.1621,53.152-7.4277,78.32
		c-6.2041,10.701-14.92,19.588-25.333,26.383c-5.4082-4.7598-9.8018-10.424-12.926-16.566
		c-8.7637-17.228-7.1045-46.586-5.3818-58.099c0.0488-0.2764,0.2334-1.2998,0.4873-2.7959
		c0.0566-0.2686,0.1104-0.5156,0.1641-0.7314l-0.041-0.0107c0.6152-3.7041,1.5283-9.5918,1.9668-14.485
		c0.0928-1.0215,0.168-2.0557,0.2295-3.0713c0.6338-10.788-0.627-18.984-1.7617-23.873c3.0664,5.2441,7.2451,15.54,6.1035,31.548
		c-0.6006,8.4639-3.1504,17.019-3.1758,17.104l-0.2236,0.7393l0.6992,0.334c0.3809,0.1846,9.458,4.4336,15.824-1.3838
		c3.3936-3.1045,5.3789-8.0117,5.7433-14.19c0.7402-12.558-5.3486-27.597-15.152-37.425c-8.0312-8.0518-22.151-18.627-22.294-18.731
		l-2.1494-1.6064l0.7354,2.5762c0.04,0.1387,4.0801,14.421,3.2861,22.975c-0.9131,9.7803-4.8125,17.591-7.6621,23.293
		c-1.4326,2.8701-2.5644,5.1367-2.8809,6.8408c-0.2314,1.2432-0.3828,2.459-0.4492,3.6104
		c-0.2861,4.8359,0.8477,8.7217,3.2783,11.232c1.8096,1.8672,4.209,2.8184,6.9414,2.7578c3.8291-0.0898,6.543-1.4033,8.1934-2.543
		c-0.3271,2.5752-0.624,5.6826-0.8271,9.1484c-0.833,14.135-0.1094,34.158,6.7305,47.603c3.251,6.3916,7.6309,12.069,12.88,16.808
		c-22.233,13.797-51.775,18.295-81.165,10.846c-37.312-9.457-63.547-45.473-62.382-85.639
		c1.0635-36.208,18.379-67.174,40.309-72.039c15.434-3.4258,24.862,2.917,29.786,8.206l-0.0117,0.0254l0.1016,0.0664
		c0.5605,0.6084,1.0596,1.2012,1.5068,1.7627c1.8008,2.8486,5.3008,9.3623,6.4697,15.952c0.6953,3.919,1.1279,7.0908,1.5859,10.448
		c0.5928,4.3633,1.2041,8.8779,2.4707,15.688c1.0596,5.6846,2.6943,10.22,4.249,13.585c-2.6426-3.1621-5.4385-7.1074-6.4668-10.617
		l-0.499-1.6894c-1.5664-5.3027-2.6006-8.8066-3.8281-17.289c-1.6602-11.49-5.7959-19.803-11.345-22.805
		c-2.4268-1.3115-4.9746-1.4766-7.1738-0.4629c-4.2275,1.9512-8.9873,7.5879-9.4434,15.352
		c-0.2363,4.0205,0.7041,8.0527,2.7998,11.984c19.574,36.746,51.784,44.949,52.107,45.027l3.8916,0.9473l-3.1055-2.5244
		c-0.0654-0.0518-6.5332-5.3916-7.5537-13.445c-0.3164-2.501-0.3467-5.7978-0.0947-10.081c0.3477-5.9336,1.1807-12.617,1.915-18.513
		c0.2529-2.0322,0.4932-3.96,0.6953-5.7197c1.5762-13.692-0.6738-23.377-6.6533-28.66c-4.5303-4.001-10.496-4.6445-14.569-3.9102
		c-3.4033,0.6152-5.2695,2.334-6.1172,3.3691c-5.3789-5.542-15.35-11.959-31.11-8.4609c-21.978,4.875-39.482,34.705-41.57,70.15
		c-0.0713,1.1943-0.123,2.3965-0.1572,3.6016c-1.1904,41.001,25.622,77.773,63.748,87.439c22.832,5.7871,45.72,4.7227,66.189-3.0801
		c5.958-2.2695,11.573-5.0781,16.767-8.3516c4.876,4.1416,10.4391,7.5059,16.516,9.9014c14.766,5.8272,31.188,5.5215,47.486-0.8838
		c18.636-7.3242,27.508-22.559,31.667-34.048c4.7461-13.108,5.8525-28.813,2.8862-40.991
		c-3.2227-13.229-10.553-26.452-16.562-35.752c7.1104,8.6582,13.04,17.139,18.305,24.67c0.3789,0.541,0.7524,1.0781,1.127,1.6133
		c3.8584,6.5459,16.194,27.611,24.078,42.695c5.9512,11.383,15.996,25.77,30.048,29.668c3.459,0.959,15.538,3.6152,25.717-2.4961
		c4.2148-2.5293,7.3574-6.168,9.4023-10.847c2.3184,2.0088,4.6016,3.9033,6.8486,5.6807c18.446,14.602,37.149,19.697,50.928,21.209
		c-0.7578,1.1982-1.7109,3.1543-1.8555,5.6172c-0.166,2.8057,0.7539,5.5488,2.7324,8.1514c3.752,4.9336,12.678,6.3154,19.898,3.084
		c12.559-5.6279,22.166-14.8,29.18-21.499c2.1953-2.0957,4.0898-3.9043,5.7832-5.3359l3.4883-2.9512l-4.3535,1.4023
		c-0.1035,0.0332-10.309,3.2686-17.789,1.123c-5.7715-1.6572-7.7969-2.7568-11.473-4.7559
		c-1.3438-0.7334-2.8672-1.5625-4.8691-2.584c-5.9121-3.0225-11.533-3.7559-15.426-2.0107
		c-2.5898,1.1602-4.375,3.3789-5.1602,6.4131c-0.1445,0.5635-0.2383,1.1924-0.2793,1.8691
		c-0.1738,2.9522,0.7129,6.0098,0.752,6.1396l0.1387,0.4775l0.4805,0.1357c2.0254,0.5684,6.002,1.3945,14.012,1.5264
		c1.9219,0.0322,14.682,0.7109,27.967-1.8945c-10.596,4.4004-44.004,3.4062-40.08,3.5752
		c-13.724-1.0664-33.475-5.6943-52.949-21.104c-2.3789-1.8848-4.8008-3.9023-7.2617-6.0469
		c0.4531-1.2637,0.834-2.5957,1.1416-3.9922c0.0791-0.3604,0.1455-0.7266,0.21-1.0938c4.8516,0.1279,10.678,0.2383,17.406,0.3672
		c6.0889,0.1172,12.906,0.2471,20.389,0.418c16.615,0.375,29.808,1.0566,55.822,3.7422c29.273,3.0176,51.205,12.968,51.424,13.068
		l4.1641,1.9121l-3.123-3.3477c-0.9297-0.9961-23.02-24.5-43.791-31.148c-18.451-5.9043-39.203-4.7227-43.697-4.377
		c-0.418-2.6797-2.3457-10.619-10.921-16.675c-8.8633-6.2568-23.957-1.8203-24.595-1.6318l-3.0186,0.9111l3.041,0.8271
		c0.0781,0.0225,7.9082,2.2129,10.88,8.1289c1.5283,3.043,1.5127,6.5879-0.0508,10.539c-1.376,3.4805-7.6143,13.523-33.604,14.824
		c1.2988-13.773-5.332-46.137-35.321-71.121c4.9053,4.0195,14.771,7.707,30.089,28.41c6.3438,8.5732,7.4854,18.433,7.4854,18.433
		c3.2617,1.209,18.011-5.9736,12.741-21.162c-4.3086-12.422-12.476-17.134-24.275-22.085
		c-8.0996-3.3965-15.828-5.8164-28.631-9.8242c-4.6465-1.4531-9.9121-3.1016-16.179-5.1016l-4.7959-1.5312l3.96,3.1016
		c0.1484,0.1172,7.2568,5.4121,15.468,20.07c2.3755,4.2383,7.7529,17.471,8.7739,22.228c1.981,9.2178,2.166,16.226,5.1289,19.964
		c2.2686,2.8613,5.4033,4.6035,8.8262,4.9043c3.1025,0.2715,6.1045-0.6553,8.2363-2.543c2.292-2.0312,3.4307-4.2178,3.6797-7.0312
		c1.8252,6.5244,3.7549,15.705,2.9834,23.366c-2.4941,0.084-5.1592,0.0869-8.0098,0.001c-14.064-13.393-30.146-31.208-46.95-51.718
		c-10.403-12.699-43.115-49.7-95.321-74.319c-26.053-12.286-38.907-16.193-56.748-21.206c-5.6309-1.583-13.017-3.1279-19.929-3.9121
		c-2.2773-0.2568-16.359-2.21-34.136-0.7539c-17.982,1.4697-31.78,5.9014-46.797,13.604c9.7676-21.73,10.134-36.429,11.114-48.016
		c2.7578-32.605-7.3408-52.9-27.758-62.347c-12.267-5.6748-23.904-5.0283-35.915,0.2959c-7.2324,3.206-11.398,9.8164-13.877,17.033
		c-2.9844,8.6816,0.1318,16.026,2.2148,19.587c-3.2441,0.7959-11.071,3.706-11.643,13.374
		c-0.0244,0.3984-0.0332,0.8105-0.0322,1.2324c0.0732,13.768,10.458,18.076,18.805,21.537c2.1016,0.873,4.0898,1.6973,5.7832,2.6113
		l0.2256,0.1201c12.957,6.9883,18.872,10.178,21.902,21.749c1.5938,6.082,1.8672,13.711,1.8721,13.785l0.1152,3.4639l1.5957-3.0791
		c0.2617-0.5078,6.4492-12.526,8.2666-21.618c1.293-6.4609,2.0762-12.234,2.3945-17.646c0.3018-5.083,0.1816-9.9404-0.3584-14.847
		c-1.7227-15.627-7.2178-23.267-12.365-28.678c-4.7373-4.9805-12.927-8.9004-21.697-4.9639
		c-5.2383,2.3506-9.6777,9.2891-9.8643,9.584l-0.1963,0.3096l0.0762,0.3613c0.083,0.3848,1.0723,3.9414,10.134,10.031
		c3.7217,2.498,10.631,8.5488,13.925,13.404c3.3438,4.9316,5.1758,10.639,6.1826,15.457c-0.1445-0.3535-0.2969-0.7119-0.457-1.0772
		c-0.1914-0.4346-0.373-0.8613-0.5537-1.292c-2.1846-5.1816-4.4463-10.541-21.661-23.502c-6.1406-4.624-10.182-10.164-10.221-10.22
		l-0.1992-0.2803c-1.8252-2.9072-5.4746-10.25-2.5312-18.818c2.3144-6.7324,7.3213-12.066,14.104-15.021
		c9.1016-3.9639,22.169-5.3525,33.772,0.5127c17.044,8.6123,25.851,24.222,25.304,56.604c-0.1846,10.863-2.5146,30.18-12.882,52.484
		c-2.4199,1.3184-6.9824,3.5703-9.3144,5.0508c-1.6387,1.0371-109.62,66.678-150.74,79.393
		c-51.048,15.791-93.326,22.281-103.52,2.7959l0.083,1.8174c4.1992,21.768,51.736,20.587,102.96,3.502
		c69.458-23.168,122.39-66.316,148.58-80.451c2.9717-1.8242,4.001-2.2959,7.8232-4.207c-6.6387,13.434-14.354,28.699-25.801,43.201
		c-25.368,32.133-43.585,45.137-76.389,57.416c-34.568,12.941-52.039,13.82-87.231,12.148
		c-23.653-1.124-69.539-12.854-70.062-29.659l-0.1631,2.7803c4.2207,20.979,38.778,32.968,69.538,35.08
		c32.076,2.2041,64.707-2.7764,96.359-16.434c32.44-14.01,49.28-30.48,70.65-59.95L356.8567,616.4695z M685.4567,718.6995
		c-7.5967,4.5586-17.532,4.1777-24.298,2.3018c-13.426-3.7227-23.141-17.696-28.927-28.761
		c-4.4873-8.5859-10.409-19.1-15.399-27.783c0.9053,1.1406,1.8057,2.25,2.7041,3.2978c11.916,13.905,27.672,28.694,54.181,32.947
		c2.9038,0.4648,5.936,0.8047,9.0112,1.0068c1.1758,0.1787,2.8809,0.3262,5.084,0.4502c2.2119,2.0928,4.3955,4.0879,6.5488,5.9873
		c-1.87,4.58-4.86,8.11-8.89,10.54L685.4567,718.6995z M696.0267,702.4796c-0.0469,0.2539-0.0889,0.5078-0.1436,0.7578
		c-0.2354,1.0703-0.5225,2.0977-0.8486,3.082c-1.4629-1.2949-2.9414-2.6406-4.4297-4.0273c1.61,0.07,3.42,0.13,5.42,0.19
		L696.0267,702.4796z M550.0167,580.7296c51.025,26.282,76.654,54.73,87.603,67.777c16.507,19.674,34.274,38.293,47.997,51.548
		c-0.8945-0.041-1.8008-0.0928-2.7305-0.1514c-3.0332-0.2002-6.0215-0.5332-8.8833-0.9912
		c-25.929-4.1602-41.388-18.682-53.09-32.337c-4.1558-4.8506-8.3896-10.818-12.836-17.176
		c-0.7212-1.2227-1.1392-1.9258-1.1641-1.9688l-0.1514,0.0898c-10.311-14.754-21.929-32.996-41.211-49.293
		c-15.575-13.162-25.685-22.092-56.558-34.841c19.12,6.49,25.37,9.28,41.0201,17.34L550.0167,580.7296z M469.2367,553.9595
		c5.2285,1.0059,10.735,1.9082,16.22,3.5674l-0.002,0.0078c0.0137,0.0049,0.0938,0.0254,0.2197,0.0596
		c26.907,8.1719,56.266,23.277,77.488,41.949c16.552,14.562,32.964,36.967,38.753,60.727c5.3608,22.002-1.5654,60.398-33.458,72.934
		c-24.458,9.6094-46.669,4.0059-61.675-8.4102c10.709-7.081,19.4991-16.177,25.557-26.629c14.87-25.65,17.618-54.77,7.542-79.892
		c-6.502-16.21-15.651-28.758-27.974-38.365c-13.711-10.693-29.837-18.915-52.332-22.823c-27.342-4.748-41.381-1.7871-57.354,2.8838
		c16.169-5.21,20.529-6.1572,35.011-7.0146c18.41-1.11,30.57,0.72,31.99,0.99L469.2367,553.9595z"/>
	
		<linearGradient id="SVGID_11_" gradientUnits="userSpaceOnUse" x1="-879.4864" y1="1101.4695" x2="-879.4864" y2="1869.7815" gradientTransform="matrix(0.022 -0.9998 0.9998 0.022 -985.1675 -309.9955)">
		<stop  offset="0" style="stop-color:#6E3600"/>
		<stop  offset="0.0338" style="stop-color:#7A4005"/>
		<stop  offset="0.0952" style="stop-color:#9A5A11"/>
		<stop  offset="0.1765" style="stop-color:#CE8424"/>
		<stop  offset="0.2" style="stop-color:#DE912A"/>
		<stop  offset="0.4299" style="stop-color:#834B00"/>
		<stop  offset="0.4638" style="stop-color:#915A0D"/>
		<stop  offset="0.5293" style="stop-color:#B78230"/>
		<stop  offset="0.6175" style="stop-color:#F2C167"/>
		<stop  offset="0.7387" style="stop-color:#D48C2E"/>
		<stop  offset="0.9045" style="stop-color:#825121"/>
	</linearGradient>
	<path fill="url(#SVGID_11_)" d="M226.7267,620.9896c6.1514-7.1221,13.633-17.294,20.87-27.131
		c7.7412-10.521,15.111-20.54,20.375-26.233c3.1973-2.623,7.4824-5.4902,13.148-8.1856c5.1992-1.9453,11.3-3.6211,16.948-4.9639
		c-9.294,3.6201-19.882,8.6865-25.604,14.614c-3.3535,3.4775-5.2705,7.7412-5.543,12.332
		c-0.4648,7.8867,4.1455,15.272,10.721,17.186c10.412,3.0273,18.937-1.8184,27.638-15.708
		c0.7109-1.1367,1.3955-2.2373,2.0586-3.3037c6.7285-10.822,11.177-17.973,19.686-22.912c7.001-4.0625,23.276-6.5273,23.441-6.5527
		l3.4609-0.5176l-3.2803-1.2207c-0.2031-0.0781-20.441-7.5879-36.92-11.699c-5.4424-1.3584-17.926-3.7686-30.193-4.1953
		c-11.862-0.4141-22.374,1.7188-28.839,5.8516c-2.3711,1.5117-10.146,7.2227-10.73,17.148
		c-0.127,2.1328,0.1064,4.3164,0.6914,6.4951c3.1143,11.61,10.315,14.657,12.959,15.398c-3.5762,4.6572-7.4785,9.96-11.479,15.397
		c-7.2168,9.8106-14.679,19.953-20.781,27.021c-14.518,16.821-29.034,26.197-58.327,33.24
		c-42.392,10.189-45.935-3.6045-46.192-3.6045l-0.1357,1.0107c6.9609,12.133,24.941,10.159,46.697,6.0547
		c30.12-5.69,44.54-18.4,59.32-35.53L226.7267,620.9896z"/>
	
		<linearGradient id="SVGID_12_" gradientUnits="userSpaceOnUse" x1="-924.6873" y1="1101.4695" x2="-924.6873" y2="1869.7784" gradientTransform="matrix(0.022 -0.9998 0.9998 0.022 -985.1675 -309.9955)">
		<stop  offset="0" style="stop-color:#6E3600"/>
		<stop  offset="0.0338" style="stop-color:#7A4005"/>
		<stop  offset="0.0952" style="stop-color:#9A5A11"/>
		<stop  offset="0.1765" style="stop-color:#CE8424"/>
		<stop  offset="0.2" style="stop-color:#DE912A"/>
		<stop  offset="0.4299" style="stop-color:#834B00"/>
		<stop  offset="0.4638" style="stop-color:#915A0D"/>
		<stop  offset="0.5293" style="stop-color:#B78230"/>
		<stop  offset="0.6175" style="stop-color:#F2C167"/>
		<stop  offset="0.7387" style="stop-color:#D48C2E"/>
		<stop  offset="0.9045" style="stop-color:#825121"/>
	</linearGradient>
	<path fill="url(#SVGID_12_)" d="M147.4967,672.2595c0.1348,0.0342,4.4316,2.8691,23.997,6.2539
		c8.5215,1.4736,20.603,2.5215,25.663,2.5176c29.561-0.0234,45.976-2.9746,77.421-16.749c49.272-21.577,69.795-60.163,69.795-60.163
		s-15.07,22.178-38.69,32.85c-9.3144,4.2051-21.23,6.7949-30,8.1396c-4.3125,0.6631-9.9385,0.5947-16.731,3.0088
		c-12.46,4.4307-33.212,15.576-48.52,19.021c-29.23,6.58-62.93,5.12-62.93,5.12L147.4967,672.2595z"/>
	
		<linearGradient id="SVGID_13_" gradientUnits="userSpaceOnUse" x1="-996.1837" y1="1026.0594" x2="-996.1837" y2="2001.3094" gradientTransform="matrix(0.022 -0.9998 0.9998 0.022 -985.1675 -309.9955)">
		<stop  offset="0" style="stop-color:#6E3600"/>
		<stop  offset="0.0338" style="stop-color:#7A4005"/>
		<stop  offset="0.0952" style="stop-color:#9A5A11"/>
		<stop  offset="0.1765" style="stop-color:#CE8424"/>
		<stop  offset="0.2" style="stop-color:#DE912A"/>
		<stop  offset="0.4299" style="stop-color:#834B00"/>
		<stop  offset="0.4638" style="stop-color:#915A0D"/>
		<stop  offset="0.5293" style="stop-color:#B78230"/>
		<stop  offset="0.6175" style="stop-color:#F2C167"/>
		<stop  offset="0.7387" style="stop-color:#D48C2E"/>
		<stop  offset="0.9045" style="stop-color:#825121"/>
	</linearGradient>
	<path fill="url(#SVGID_13_)" d="M368.8867,737.9296l4.583,3.1738l-3.3398-4.4551c-0.1475-0.1992-15.021-19.908-33.316-33.287
		c-9.7373-7.1211-26.276-16.19-57.352-12.762c-8.6426,0.9521-14.626,1.9062-19.838,3.0801
		c-50.303,11.32-70.166,4.8809-70.166,4.8809s38.636,7.9648,58.834,7.9639c11.494-0.001,19.545-1.2695,29.189-1.1475
		c6.626,0.0859,13.482,0.1719,20.737,1.1504c14.669,1.9844,26.772,5.7656,34.592,8.7109c-9.0098-2.0186-22.129-4.6484-31.842-5.2852
		c-8.0127-0.5273-14.383-0.2275-20.544,0.0586c-8.1035,0.377-19.536,1.7305-30.406,1.3857
		c-34.48-1.0928-70.082-12.213-70.082-12.213s24.428,15.694,48.993,23.585c15.269,4.9043,38.097,8.0869,58.811,5.1016
		c16.586-2.3936,36.445-4.1348,57.969,1.0869c15.57,3.78,23.12,8.93,23.19,8.98L368.8867,737.9296z"/>
	
		<linearGradient id="SVGID_14_" gradientUnits="userSpaceOnUse" x1="-794.2529" y1="1101.4695" x2="-794.2529" y2="1869.7834" gradientTransform="matrix(0.022 -0.9998 0.9998 0.022 -985.1675 -309.9955)">
		<stop  offset="0" style="stop-color:#6E3600"/>
		<stop  offset="0.0338" style="stop-color:#7A4005"/>
		<stop  offset="0.0952" style="stop-color:#9A5A11"/>
		<stop  offset="0.1765" style="stop-color:#CE8424"/>
		<stop  offset="0.2" style="stop-color:#DE912A"/>
		<stop  offset="0.4299" style="stop-color:#834B00"/>
		<stop  offset="0.4638" style="stop-color:#915A0D"/>
		<stop  offset="0.5293" style="stop-color:#B78230"/>
		<stop  offset="0.6175" style="stop-color:#F2C167"/>
		<stop  offset="0.7387" style="stop-color:#D48C2E"/>
		<stop  offset="0.9045" style="stop-color:#825121"/>
	</linearGradient>
	<path fill="url(#SVGID_14_)" d="M434.6067,482.2596c1.9053,3.0527,2.8613,7.9219,2.5606,13.027
		c-0.2559,4.373-1.3955,8.5625-3.292,12.113c-3.3486,6.2715-8.2432,10.857-13.426,15.713c-2.5615,2.4023-5.21,4.8828-7.7148,7.625
		c-9.0146,9.8711-13.905,17.736-13.956,17.814l-1.3779,2.2305l2.4668-0.9102c0.0957-0.0352,9.8252-3.5996,22.341-5.5644
		c28.325-4.4443,40.427-3.7988,60.313,0.25c8.9873,1.8281,19.914,6.0684,31.484,10.559c10.858,4.2109,22.085,8.5664,32.674,11.307
		c28.722,7.4287,54.475-8.1523,54.731-8.3086l3.6885-2.2734l-4.2935,0.6094c-0.1484,0.0215-14.917,2.0918-24.789,0.6641
		c-13.688-1.9766-19.172-3.5088-34.514-9.6289c-4.7432-1.8926-9.123-4.4404-13.761-7.1348
		c-10.174-5.9141-21.706-12.617-42.154-15.877c-19.297-3.0762-36.009,0.6992-44.988,3.5508
		c6.3398-4.7266,15.529-12.868,17.51-21.535c0.5146-2.2588,0.8408-4.4668,0.9648-6.5625c0.625-10.638-3.7959-19.169-13.519-26.076
		c-8.7881-6.2422-23.981-7.9277-24.625-7.9951l-3.9541-0.4229l3.3818,2.0879c0.08,0.04,8.3,5.18,14.25,14.73L434.6067,482.2596z"/>
	
		<linearGradient id="SVGID_15_" gradientUnits="userSpaceOnUse" x1="-856.0887" y1="1101.4695" x2="-856.0887" y2="1869.7834" gradientTransform="matrix(0.022 -0.9998 0.9998 0.022 -985.1675 -309.9955)">
		<stop  offset="0" style="stop-color:#6E3600"/>
		<stop  offset="0.0338" style="stop-color:#7A4005"/>
		<stop  offset="0.0952" style="stop-color:#9A5A11"/>
		<stop  offset="0.1765" style="stop-color:#CE8424"/>
		<stop  offset="0.2" style="stop-color:#DE912A"/>
		<stop  offset="0.4299" style="stop-color:#834B00"/>
		<stop  offset="0.4638" style="stop-color:#915A0D"/>
		<stop  offset="0.5293" style="stop-color:#B78230"/>
		<stop  offset="0.6175" style="stop-color:#F2C167"/>
		<stop  offset="0.7387" style="stop-color:#D48C2E"/>
		<stop  offset="0.9045" style="stop-color:#825121"/>
	</linearGradient>
	<path fill="url(#SVGID_15_)" d="M590.9667,590.2496c20.98,9.2471,45.691,11.931,75.816,14.473
		c32.655,2.7617,49.433,22.638,49.599,22.838l3.1191,3.7754l-1.5615-4.6367c-0.1016-0.3018-10.484-30.355-36.831-41.284
		c-7.5547-3.1318-18.829-2.4424-23.224-2.0156c1.5923-2.8818,4.6621-9.3662,5.125-17.226c0.0874-1.4805,0.0762-2.96-0.0342-4.3926
		c-1.5679-20.432-19.936-26.527-20.122-26.586l-1.7554-0.5605l0.6274,1.7275c0.0244,0.0693,2.4356,6.8193,1.9531,15.006
		c-0.4995,8.4795-4.2656,19.886-19.371,26.065"/>
	
		<linearGradient id="SVGID_16_" gradientUnits="userSpaceOnUse" x1="-977.4203" y1="1101.4695" x2="-977.4203" y2="1869.7804" gradientTransform="matrix(0.022 -0.9998 0.9998 0.022 -985.1675 -309.9955)">
		<stop  offset="0" style="stop-color:#6E3600"/>
		<stop  offset="0.0338" style="stop-color:#7A4005"/>
		<stop  offset="0.0952" style="stop-color:#9A5A11"/>
		<stop  offset="0.1765" style="stop-color:#CE8424"/>
		<stop  offset="0.2" style="stop-color:#DE912A"/>
		<stop  offset="0.4299" style="stop-color:#834B00"/>
		<stop  offset="0.4638" style="stop-color:#915A0D"/>
		<stop  offset="0.5293" style="stop-color:#B78230"/>
		<stop  offset="0.6175" style="stop-color:#F2C167"/>
		<stop  offset="0.7387" style="stop-color:#D48C2E"/>
		<stop  offset="0.9045" style="stop-color:#825121"/>
	</linearGradient>
	<path fill="url(#SVGID_16_)" d="M660.1367,731.7296c0,0-19.619,0.7402-32.576-13.58c-8.8677-9.8008-18.305-53.848-18.305-53.848
		s2.4712,18.501,2.355,30.192c-0.1235,12.356-2.8584,27.976-15.998,38.761c-5.7686,4.7334-10.118,7.4434-10.118,7.4434
		s9.5234,0.7881,16.367-2.252c11.391-5.0586,14.665-14.412,14.665-14.412s1.0928,3.6807,9.8892,8.4199
		c11.96,6.46,33.72-0.72,33.72-0.72L660.1367,731.7296z"/>
	
		<linearGradient id="SVGID_17_" gradientUnits="userSpaceOnUse" x1="-926.7069" y1="1101.4695" x2="-926.7069" y2="1869.7804" gradientTransform="matrix(0.022 -0.9998 0.9998 0.022 -985.1675 -309.9955)">
		<stop  offset="0" style="stop-color:#6E3600"/>
		<stop  offset="0.0338" style="stop-color:#7A4005"/>
		<stop  offset="0.0952" style="stop-color:#9A5A11"/>
		<stop  offset="0.1765" style="stop-color:#CE8424"/>
		<stop  offset="0.2" style="stop-color:#DE912A"/>
		<stop  offset="0.4299" style="stop-color:#834B00"/>
		<stop  offset="0.4638" style="stop-color:#915A0D"/>
		<stop  offset="0.5293" style="stop-color:#B78230"/>
		<stop  offset="0.6175" style="stop-color:#F2C167"/>
		<stop  offset="0.7387" style="stop-color:#D48C2E"/>
		<stop  offset="0.9045" style="stop-color:#825121"/>
	</linearGradient>
	<path fill="url(#SVGID_17_)" d="M525.4268,588.7095c0,0,21.806,22.692,22.801,52c0.752,22.13-1.6377,32.924-7.4434,46.754
		c-3.5459,8.4443-5.208,10.588-5.208,10.588s3.2988,8.2871,10.707,11.598c18.275,8.1621,31.706-4.1621,31.706-4.1621
		s-18.873-10.416-17.541-30.887c1.6025-24.63-0.4136-33.462-4.4634-44.894c-7.93-22.33-30.57-41-30.57-41L525.4268,588.7095z"/>
	
		<linearGradient id="SVGID_18_" gradientUnits="userSpaceOnUse" x1="-970.2051" y1="1101.4695" x2="-970.2051" y2="1869.7834" gradientTransform="matrix(0.022 -0.9998 0.9998 0.022 -985.1675 -309.9955)">
		<stop  offset="0" style="stop-color:#6E3600"/>
		<stop  offset="0.0338" style="stop-color:#7A4005"/>
		<stop  offset="0.0952" style="stop-color:#9A5A11"/>
		<stop  offset="0.1765" style="stop-color:#CE8424"/>
		<stop  offset="0.2" style="stop-color:#DE912A"/>
		<stop  offset="0.4299" style="stop-color:#834B00"/>
		<stop  offset="0.4638" style="stop-color:#915A0D"/>
		<stop  offset="0.5293" style="stop-color:#B78230"/>
		<stop  offset="0.6175" style="stop-color:#F2C167"/>
		<stop  offset="0.7387" style="stop-color:#D48C2E"/>
		<stop  offset="0.9045" style="stop-color:#825121"/>
	</linearGradient>
	<path fill="url(#SVGID_18_)" d="M456.7167,735.7296c0,0-32.857,5.7549-62.146-18.286c-22.946-18.835-29.128-39.138-30.461-50.344
		c-0.7588-6.377-0.4355-8.0176-0.4355-8.0176c1.6836-2.9492,4.2031-7.1387,13.369-11.272c9.3506-4.2168,21.384,1.6162,21.384,1.6162
		s-10.576,14.702-8.5537,29.143c2.0244,14.442,4.6611,28.178,20.94,40.436c18.25,13.73,45.91,16.72,45.91,16.72L456.7167,735.7296z"
		/>
</g>
</svg>
